<?xml version="1.0" standalone="no"?>
<!DOCTYPE svg PUBLIC "-//W3C//DTD SVG 20010904//EN"
 "http://www.w3.org/TR/2001/REC-SVG-20010904/DTD/svg10.dtd">
<svg version="1.0" xmlns="http://www.w3.org/2000/svg"
 width="300.000000pt" height="300.000000pt" viewBox="0 0 300.000000 300.000000"
 preserveAspectRatio="xMidYMid meet">
<metadata>
Created by potrace 1.11, written by Peter Selinger 2001-2013
</metadata>
<g transform="translate(0.000000,300.000000) scale(0.100000,-0.100000)"
fill="#000000" stroke="none">
<path d="M1275 2933 c-35 -10 -69 -36 -150 -114 -121 -117 -179 -169 -187
-169 -5 0 -8 -4 -8 -10 0 -15 -33 -50 -48 -50 -7 0 -10 -4 -7 -10 3 -5 1 -10
-5 -10 -13 0 -132 -116 -154 -150 -19 -31 -77 -183 -92 -242 -1 -5 -3 -10 -4
-13 -3 -6 -4 -11 -14 -50 -8 -31 -19 -65 -32 -100 -4 -11 -8 -26 -10 -34 -1
-7 -11 -36 -22 -65 -21 -56 -27 -72 -78 -221 -45 -127 -42 -108 -49 -287 -8
-184 -10 -212 -19 -227 -4 -6 -4 -11 1 -11 4 0 7 -35 7 -77 -2 -97 36 -234 92
-332 23 -42 144 -224 153 -231 3 -3 21 -23 40 -45 148 -175 231 -251 299 -270
13 -4 20 -11 16 -18 -4 -7 -4 -9 0 -5 4 3 31 -4 59 -16 29 -13 77 -29 107 -36
30 -7 63 -17 72 -21 9 -5 47 -11 85 -14 37 -3 104 -8 148 -11 102 -8 550 -9
591 -2 17 3 41 11 53 17 11 7 21 9 21 5 0 -3 7 -1 15 6 8 6 18 9 24 6 5 -3 11
-3 13 2 1 4 64 38 138 76 147 73 162 84 201 136 71 96 90 148 92 245 1 94 -13
119 -108 186 -48 34 -157 89 -177 89 -21 0 -137 -65 -190 -106 -32 -25 -58
-42 -58 -37 0 4 -7 0 -14 -9 -7 -10 -23 -19 -35 -21 -13 -2 -26 -8 -29 -13
-13 -18 -81 -46 -93 -39 -8 5 -10 4 -5 -3 4 -7 4 -12 -1 -13 -4 0 -17 -2 -28
-5 -66 -14 -155 -18 -265 -10 -66 4 -141 26 -168 49 -8 6 -16 10 -16 7 -1 -3
-19 6 -41 20 -22 13 -51 29 -65 36 -14 6 -35 21 -47 33 -13 12 -23 19 -23 16
0 -12 -79 79 -85 98 -4 9 -10 17 -15 17 -11 0 -56 140 -69 217 -6 32 -17 89
-26 127 -26 121 -7 476 26 476 5 0 8 3 7 8 -5 16 35 101 45 95 6 -3 7 -1 3 5
-7 12 31 102 44 102 5 0 11 9 15 19 3 10 21 35 39 54 19 20 32 37 30 39 -3 3
39 27 191 108 39 20 97 52 130 70 67 36 108 54 101 42 -4 -6 44 -8 52 -2 8 7
28 4 34 -5 5 -7 8 -7 8 0 0 6 15 10 33 9 17 -1 32 -3 32 -3 0 -1 24 -4 53 -6
29 -3 60 -9 70 -14 31 -18 101 -93 162 -177 47 -63 61 -72 118 -72 38 -1 48 4
91 49 26 27 59 70 73 96 l26 48 -2 280 c-2 239 -5 285 -19 312 -20 37 -62 82
-80 84 -39 5 -86 3 -115 -2 -17 -4 -35 -3 -38 3 -3 5 -11 5 -19 -2 -15 -12
-36 -10 -47 5 -5 6 -8 5 -8 -2 0 -8 -15 -12 -45 -10 -25 1 -45 5 -45 10 0 4
-4 6 -9 3 -4 -3 -33 3 -64 14 -31 11 -80 23 -109 26 -29 4 -56 8 -59 10 -3 2
-41 6 -85 10 -86 7 -129 12 -129 14 0 10 -270 22 -300 13z"/>
</g>
</svg>
